<svg xmlns="http://www.w3.org/2000/svg" viewBox="0 0 469.333 469.333"><path d="M437.365 0H31.968C14.336 0 0 14.336 0 31.968v234.731c0 9.419 4.16 17.803 10.656 23.659C3.84 305.995 0 323.211 0 341.333c0 70.581 57.419 128 128 128s128-57.419 128-128c0-14.976-2.72-29.301-7.467-42.667h188.832c17.632 0 31.968-14.336 31.968-31.968V31.968C469.333 14.336 454.997 0 437.365 0zM32 384c-.544 0-1.024.235-1.547.309-4.459-10.059-7.445-20.907-8.576-32.309h31.765c.512 11.179 1.856 21.877 3.883 32H32zm25.515-85.333c-2.027 10.123-3.36 20.821-3.883 32H21.877c1.131-11.339 4.085-22.144 8.501-32.16.533.021 1.045.16 1.589.16H57.515zm-14.646-21.334c9.035-11.989 20.469-22.069 33.685-29.376-5.291 8.555-9.835 18.421-13.461 29.376H42.869zm0 128h20.224c3.627 10.955 8.16 20.821 13.451 29.387-13.205-7.317-24.64-17.397-33.675-29.387zm74.464 40.416c-12.704-5.397-23.851-20.224-31.595-40.416h31.595v40.416zm0-61.749H79.328c-2.261-10.016-3.797-20.768-4.384-32h42.389v32zm0-53.333H74.944c.587-11.232 2.123-21.984 4.384-32h38.005v32zm0-53.334H85.739c7.744-20.192 18.891-35.019 31.595-40.416v40.416zm21.334 168.416v-40.416h31.595c-7.745 20.192-18.891 35.019-31.595 40.416zm0-61.749v-32h42.389c-.587 11.232-2.123 21.984-4.384 32h-38.005zm38.005-85.333c2.261 10.016 3.797 20.768 4.384 32h-42.389v-32h38.005zm-38.005-21.334v-40.416c12.704 5.397 23.851 20.224 31.595 40.416h-31.595zm40.778-29.376c13.216 7.307 24.64 17.387 33.685 29.376h-20.224c-3.626-10.954-8.17-20.821-13.461-29.376zm0 186.763c5.291-8.555 9.824-18.421 13.451-29.387h20.224c-9.024 11.99-20.459 22.07-33.675 29.387zm46.102-50.411c-.523-.074-.992-.309-1.547-.309h-25.515c2.027-10.123 3.36-20.821 3.883-32h31.755c-1.142 11.403-4.128 22.251-8.576 32.309zm-23.19-53.642c-.512-11.179-1.856-21.877-3.883-32h27.222c4.373 9.973 7.307 20.715 8.427 32h-31.766zM448 266.699c0 5.867-4.768 10.635-10.635 10.635H238.677c-22.165-38.197-63.424-64-110.677-64-44.075 0-83.019 22.4-106.048 56.405-.299-.981-.619-1.963-.619-3.04V149.333H448v117.366zM448 128H21.333V85.333H448V128zm0-64H21.333V31.968c0-5.867 4.768-10.635 10.635-10.635h405.397c5.867 0 10.635 4.768 10.635 10.635V64z"/><circle cx="394.667" cy="181.333" r="10.667"/><circle cx="352" cy="181.333" r="10.667"/><circle cx="309.333" cy="181.333" r="10.667"/><path d="M464.587 375.125l-32-21.333c-4.907-3.275-11.531-1.952-14.795 2.955-3.264 4.896-1.941 11.531 2.955 14.795L439.435 384l-18.688 12.459c-4.896 3.264-6.219 9.888-2.955 14.795a10.66 10.66 0 008.885 4.747 10.62 10.62 0 005.909-1.792l32-21.333a10.682 10.682 0 004.747-8.875c0-3.564-1.781-6.892-4.746-8.876zM325.92 396.459L307.232 384l18.688-12.459c4.896-3.264 6.219-9.888 2.955-14.795-3.285-4.907-9.899-6.229-14.795-2.955l-32 21.333a10.682 10.682 0 00-4.747 8.875 10.68 10.68 0 004.747 8.875l32 21.333a10.623 10.623 0 005.909 1.792c3.445 0 6.827-1.664 8.885-4.747 3.265-4.895 1.942-11.529-2.954-14.793z"/><circle cx="352" cy="384" r="10.667"/><circle cx="394.667" cy="384" r="10.667"/><path d="M138.667 170.667H53.333c-5.888 0-10.667 4.779-10.667 10.667S47.445 192 53.333 192h85.333c5.888 0 10.667-4.779 10.667-10.667s-4.778-10.666-10.666-10.666zM213.333 170.667h-32c-5.888 0-10.667 4.779-10.667 10.667S175.445 192 181.333 192h32c5.888 0 10.667-4.779 10.667-10.667s-4.779-10.666-10.667-10.666z"/></svg>