<svg xmlns="http://www.w3.org/2000/svg" viewBox="0 0 480 480"><path d="M472 360h-.408c-.48-4.856-1.456-9.552-2.768-14.112l.424-.168c4.104-1.64 6.104-6.296 4.464-10.4s-6.328-6.096-10.4-4.456l-.432.176c-2.544-4.848-5.528-9.424-8.976-13.632l.32-.32a8 8 0 10-11.312-11.32l-.32.32c-3.464-2.84-7.2-5.352-11.112-7.584l.192-.44a8.005 8.005 0 00-4.088-10.552c-4.048-1.776-8.76.048-10.552 4.08l-.176.4c-5.4-1.768-11.032-3.016-16.864-3.6V288c0-4.416-3.576-8-8-8s-8 3.584-8 8v.408c-5.832.584-11.464 1.832-16.864 3.6l-.176-.4a8 8 0 00-10.552-4.08c-4.04 1.784-5.864 6.512-4.088 10.552l.192.44c-3.912 2.232-7.64 4.744-11.112 7.584L323.312 288l24-24H408c4.424 0 8-3.584 8-8v-8h8c4.424 0 8-3.584 8-8s-3.576-8-8-8h-8v-4.688l29.656-29.656A8 8 0 00440 184H288.448l-70.56-7.84-2.048-.768c-.216-2.704-1.664-5.248-4.264-6.552l-32-16c-3.968-1.992-8.76-.368-10.736 3.576-.2.392-.208.816-.328 1.224l-10.76-4.032-14.592-29.192A8.016 8.016 0 00136 120h-3.056l8-16H160c0 4.416 3.584 8 8 8s8-3.584 8-8h16c4.416 0 8-3.584 8-8s-3.584-8-8-8h-16c0-4.416-3.584-8-8-8s-8 3.584-8 8h-24a8.009 8.009 0 00-7.16 4.424L115.056 120H104a7.994 7.994 0 00-7.76 6.056L89.752 152H72a7.994 7.994 0 00-7.76 6.056l-8 32A8.006 8.006 0 0064 200h34.584l8.952 22.384-50.544-6.32a8.019 8.019 0 00-3.968.504l-40 16a8.002 8.002 0 00-4.456 10.4A8.018 8.018 0 0016 248c.992 0 1.992-.184 2.968-.576l38.08-15.232 53.12 6.64L106.136 256H104c-4.416 0-8 3.584-8 8 0 3.864 2.8 6.936 6.44 7.688l-4.016 17.072c-.816-.104-1.608-.272-2.424-.352V288c0-4.416-3.584-8-8-8s-8 3.584-8 8v.408c-5.832.584-11.464 1.832-16.864 3.6l-.176-.408c-1.784-4.048-6.528-5.872-10.552-4.08-4.04 1.784-5.864 6.512-4.08 10.552l.192.44c-3.912 2.232-7.648 4.744-11.112 7.584l-.32-.32c-3.128-3.128-8.184-3.128-11.312 0s-3.128 8.184 0 11.312l.32.32c-3.44 4.2-6.432 8.776-8.968 13.624l-.424-.168a7.977 7.977 0 00-10.4 4.456c-1.648 4.104.352 8.76 4.456 10.4l.424.168c-1.32 4.56-2.296 9.256-2.776 14.112H8c-4.416 0-8 3.584-8 8s3.584 8 8 8h.408c.48 4.856 1.456 9.552 2.768 14.112l-.424.168c-4.104 1.64-6.096 6.296-4.456 10.4a8.002 8.002 0 007.432 5.032c.992 0 2-.184 2.968-.576l.424-.168c2.544 4.848 5.528 9.424 8.968 13.624l-.32.32a7.991 7.991 0 000 11.312 7.978 7.978 0 005.656 2.344 7.978 7.978 0 005.656-2.344l.32-.32c3.464 2.84 7.2 5.352 11.112 7.584l-.192.44c-1.784 4.04.04 8.768 4.08 10.552a7.989 7.989 0 003.232.688c3.072 0 6-1.784 7.32-4.768l.176-.408c5.4 1.768 11.032 3.016 16.864 3.6V448c0 4.416 3.584 8 8 8s8-3.584 8-8v-.408c5.832-.584 11.464-1.832 16.864-3.6l.176.408a7.993 7.993 0 007.32 4.768c1.08 0 2.176-.224 3.232-.688 4.04-1.784 5.864-6.512 4.08-10.552l-.192-.44c3.912-2.232 7.648-4.744 11.112-7.584l.32.32a7.978 7.978 0 005.656 2.344 7.978 7.978 0 005.656-2.344 7.991 7.991 0 000-11.312l-.32-.32c3.44-4.2 6.432-8.776 8.968-13.624l.424.168a7.957 7.957 0 002.968.576 8.01 8.01 0 007.432-5.032c1.648-4.104-.352-8.76-4.456-10.4l-.424-.168c1.312-4.56 2.288-9.264 2.768-14.112H168c4.416 0 8-3.584 8-8s-3.584-8-8-8h-.408c-.48-4.856-1.456-9.552-2.768-14.112l.424-.168c4.104-1.64 6.096-6.296 4.456-10.4s-6.296-6.096-10.4-4.456l-.424.168c-2.544-4.848-5.528-9.424-8.968-13.624l.32-.32a7.991 7.991 0 000-11.312 7.991 7.991 0 00-11.312 0l-.32.32c-3.464-2.84-7.2-5.352-11.112-7.584l.192-.44c1.784-4.04-.04-8.768-4.08-10.552-3.088-1.368-6.552-.6-8.824 1.632L118.808 272H120c4.416 0 8-3.584 8-8 0-3.544-2.344-6.456-5.544-7.504l3.88-16.496h31.936l-5.984 21.888c-.016.064.008.128-.008.192a7.955 7.955 0 00-.128 3.336c.008.048 0 .104.016.152.136.688.36 1.368.68 2.008l32 64A7.988 7.988 0 00192 336h32c.328 0 .664-.016.992-.064L240 334.064V360h-16c-4.416 0-8 3.584-8 8s3.584 8 8 8h48c4.424 0 8-3.584 8-8s-3.576-8-8-8h-16v-27.936l32.992-4.128a7.982 7.982 0 005.408-3.136l18.464-24.624 16.904 16.904.32.32c-3.44 4.2-6.432 8.776-8.976 13.632l-.432-.176c-4.072-1.648-8.76.344-10.4 4.456a8.003 8.003 0 004.464 10.4l.424.168c-1.312 4.56-2.288 9.264-2.768 14.112h-.4c-4.424 0-8 3.584-8 8s3.576 8 8 8h.408c.48 4.856 1.456 9.552 2.768 14.112l-.424.168a8.002 8.002 0 002.968 15.432c.992 0 2-.184 2.968-.576l.432-.176c2.544 4.848 5.528 9.424 8.976 13.632l-.32.32a8 8 0 000 11.32 7.97 7.97 0 005.656 2.336 7.978 7.978 0 005.656-2.344l.32-.32c3.464 2.84 7.2 5.352 11.112 7.584l-.192.44a8.005 8.005 0 004.088 10.552 8.008 8.008 0 003.224.688c3.072 0 6-1.784 7.328-4.768l.176-.4c5.4 1.768 11.032 3.016 16.864 3.6V448c0 4.416 3.576 8 8 8s8-3.584 8-8v-.408c5.832-.584 11.464-1.832 16.864-3.6l.176.4a8.005 8.005 0 007.328 4.768 7.98 7.98 0 003.224-.688c4.04-1.784 5.864-6.512 4.088-10.552l-.192-.44c3.912-2.232 7.64-4.744 11.112-7.584l.32.32a7.978 7.978 0 005.656 2.344 8.003 8.003 0 005.656-2.336 8 8 0 000-11.32l-.32-.32c3.44-4.2 6.432-8.776 8.976-13.632l.432.176a7.897 7.897 0 002.968.576 8.018 8.018 0 007.432-5.032 8.003 8.003 0 00-4.464-10.4l-.424-.168c1.312-4.56 2.288-9.264 2.768-14.112H472c4.424 0 8-3.584 8-8a7.991 7.991 0 00-8-7.992zM74.248 184l4-16h11.504l4 16H74.248zM400 248h-48v-16h48v16zm-112.88-48.048a8 8 0 00.88.048h132.688l-16 16H274.56l-28.92-20.656 41.48 4.608zM278.552 232l-5.16 30.936-29.976-4.448L275.904 232h2.648zm-168.304-96h20.808l8 16h-32.808l4-16zM99.712 353.152c4.4 3.48 7.288 8.808 7.288 14.848 0 10.48-8.52 19-19 19s-19-8.52-19-19c0-9.16 6.52-16.824 15.16-18.608l-3.944 16.776a7.997 7.997 0 005.952 9.624 8.018 8.018 0 009.624-5.96l3.92-16.68zM152 368.048c0 35.288-28.712 63.976-64 63.976s-64-28.72-64-64.008 28.712-64.008 64-64.008c2.28 0 4.536 1.624 6.752 1.864L88.016 336H88c-19.304 0-35 14.2-35 33.504s15.696 34.248 35 34.248 35-16.072 35-35.376c0-13.688-7.968-25.624-19.44-31.376l6.76-28.816c24.296 9.088 41.68 32.432 41.68 59.864zM125.416 224l-13.784-34.464L106.248 168h44.304l51.008 19.128L164.688 224h-39.272zm50.416 12.464l41.352-41.784.992.712 40.416 29.376L221.104 256H170.48l5.352-19.536zM219.056 320h-22.112l-24-48h46.112l12 24-12 24zm64.584-7.512l-45.8 5.72 9.312-18.632c.552-1.096.808-2.288.824-3.48.008-.392-.168-.76-.224-1.152-.096-.728-.12-1.464-.416-2.144l-8.088-18.544 38.336 5.48 22.272 11.136-16.216 21.616zm26.784-34.224l-21.56-10.776L294.776 232H336v20.688l-25.576 25.576zM392 432c-35.288 0-64-28.712-64-64 0-14.768 5.072-28.336 13.504-39.184l20.824 20.824c-3.32 5.352-5.336 11.608-5.336 18.352 0 19.304 15.704 35 35 35s35-15.696 35-35C426.992 348.688 411.296 333 392 333c-6.752 0-13 2.008-18.352 5.336l-20.824-20.824C363.664 309.072 377.232 304 392 304c35.288 0 64 28.712 64 64s-28.712 64-64 64zm5.656-69.656l-12.136-12.136c2.032-.744 4.192-1.208 6.48-1.208 10.48 0 19 8.52 19 19s-8.52 19-19 19-19-8.52-19-19c0-2.28.472-4.448 1.208-6.48l12.136 12.136A7.978 7.978 0 00392 376a7.978 7.978 0 005.656-2.344 7.991 7.991 0 000-11.312z"/><circle cx="128" cy="184" r="8"/><circle cx="208" cy="296" r="8"/><path d="M24 440H8c-4.416 0-8 3.584-8 8s3.584 8 8 8h16c4.416 0 8-3.584 8-8s-3.584-8-8-8zM240 440h-88c-4.416 0-8 3.584-8 8s3.584 8 8 8h88c4.416 0 8-3.584 8-8s-3.584-8-8-8zM320 440h-48c-4.424 0-8 3.584-8 8s3.576 8 8 8h48c4.424 0 8-3.584 8-8s-3.576-8-8-8zM472 440h-16c-4.424 0-8 3.584-8 8s3.576 8 8 8h16c4.424 0 8-3.584 8-8s-3.576-8-8-8zM216 40h24c4.416 0 8-3.584 8-8s-3.584-8-8-8h-24c-4.416 0-8 3.584-8 8s3.584 8 8 8zM272 40h8c4.424 0 8-3.584 8-8s-3.576-8-8-8h-8c-4.424 0-8 3.584-8 8s3.576 8 8 8zM8 72h24c4.416 0 8-3.584 8-8s-3.584-8-8-8H8c-4.416 0-8 3.584-8 8s3.584 8 8 8zM64 72h8c4.416 0 8-3.584 8-8s-3.584-8-8-8h-8c-4.416 0-8 3.584-8 8s3.584 8 8 8zM408 104h24c4.424 0 8-3.584 8-8s-3.576-8-8-8h-24c-4.424 0-8 3.584-8 8s3.576 8 8 8zM464 104h8c4.424 0 8-3.584 8-8s-3.576-8-8-8h-8c-4.424 0-8 3.584-8 8s3.576 8 8 8zM272 144c0 4.416 3.576 8 8 8h24c4.424 0 8-3.584 8-8s-3.576-8-8-8h-24c-4.424 0-8 3.584-8 8zM336 152h8c4.424 0 8-3.584 8-8s-3.576-8-8-8h-8c-4.424 0-8 3.584-8 8s3.576 8 8 8z"/></svg>